<svg width="196" height="43" viewBox="0 0 196 43" fill="none" xmlns="http://www.w3.org/2000/svg">
<path d="M65.7329 12.936L55.3649 37.32C55.1409 37.928 54.7889 38.408 54.3089 38.76C53.8609 39.08 53.3649 39.24 52.8209 39.24C51.9569 39.24 51.3169 39 50.9009 38.52C50.4849 38.04 50.2769 37.448 50.2769 36.744C50.2769 36.456 50.3249 36.152 50.4209 35.832L62.3729 7.128C62.6289 6.488 63.0129 5.992 63.5249 5.64C64.0689 5.288 64.6449 5.144 65.2529 5.208C65.8289 5.208 66.3569 5.384 66.8369 5.736C67.3489 6.056 67.7169 6.52 67.9409 7.128L79.7489 35.256C79.9089 35.672 79.9889 36.056 79.9889 36.408C79.9889 37.272 79.7009 37.96 79.1249 38.472C78.5809 38.984 77.9729 39.24 77.3009 39.24C76.7249 39.24 76.1969 39.064 75.7169 38.712C75.2689 38.36 74.9169 37.88 74.6609 37.272L64.3409 13.224L65.7329 12.936ZM56.8529 31.464L59.4929 25.944H72.4529L73.3649 31.464H56.8529Z" fill="#C5B7A9"/>
<rect width="5.31834" height="36.2728" rx="2.65917" transform="matrix(-0.919242 -0.393692 -0.393692 0.919242 94.2063 6.72552)" fill="#C5B7A9"/>
<path d="M92.1498 5.4H108.23C109.062 5.4 109.75 5.672 110.294 6.216C110.87 6.728 111.158 7.4 111.158 8.232C111.158 9.032 110.87 9.688 110.294 10.2C109.75 10.68 109.062 10.92 108.23 10.92H94.7898L95.2218 10.104V19.464L94.8378 19.08H106.07C106.902 19.08 107.59 19.352 108.134 19.896C108.71 20.408 108.998 21.08 108.998 21.912C108.998 22.712 108.71 23.368 108.134 23.88C107.59 24.36 106.902 24.6 106.07 24.6H94.9818L95.2218 24.216V33.912L94.8378 33.48H108.23C109.062 33.48 109.75 33.768 110.294 34.344C110.87 34.888 111.158 35.528 111.158 36.264C111.158 37.064 110.87 37.72 110.294 38.232C109.75 38.744 109.062 39 108.23 39H92.1498C91.3178 39 90.6138 38.728 90.0378 38.184C89.4938 37.608 89.2218 36.904 89.2218 36.072V8.328C89.2218 7.496 89.4938 6.808 90.0378 6.264C90.6138 5.688 91.3178 5.4 92.1498 5.4ZM138.099 5.256C138.835 5.256 139.491 5.544 140.067 6.12C140.675 6.664 140.979 7.368 140.979 8.232C140.979 8.52 140.931 8.824 140.835 9.144C140.771 9.432 140.643 9.72 140.451 10.008L129.555 25.608L130.419 22.296V36.072C130.419 36.904 130.131 37.608 129.555 38.184C129.011 38.728 128.371 39 127.635 39C126.835 39 126.147 38.728 125.571 38.184C125.027 37.608 124.755 36.904 124.755 36.072V22.68L125.139 24.216L114.771 10.44C114.451 10.024 114.227 9.624 114.099 9.24C113.971 8.856 113.907 8.504 113.907 8.184C113.907 7.32 114.243 6.616 114.915 6.072C115.587 5.528 116.275 5.256 116.979 5.256C117.875 5.256 118.659 5.704 119.331 6.6L128.547 19.32L127.203 19.128L135.699 6.696C136.371 5.736 137.171 5.256 138.099 5.256ZM148.212 5.4H164.292C165.124 5.4 165.812 5.672 166.356 6.216C166.932 6.728 167.22 7.4 167.22 8.232C167.22 9.032 166.932 9.688 166.356 10.2C165.812 10.68 165.124 10.92 164.292 10.92H150.852L151.284 10.104V19.464L150.9 19.08H162.132C162.964 19.08 163.652 19.352 164.196 19.896C164.772 20.408 165.06 21.08 165.06 21.912C165.06 22.712 164.772 23.368 164.196 23.88C163.652 24.36 162.964 24.6 162.132 24.6H151.044L151.284 24.216V33.912L150.9 33.48H164.292C165.124 33.48 165.812 33.768 166.356 34.344C166.932 34.888 167.22 35.528 167.22 36.264C167.22 37.064 166.932 37.72 166.356 38.232C165.812 38.744 165.124 39 164.292 39H148.212C147.38 39 146.676 38.728 146.1 38.184C145.556 37.608 145.284 36.904 145.284 36.072V8.328C145.284 7.496 145.556 6.808 146.1 6.264C146.676 5.688 147.38 5.4 148.212 5.4ZM183.553 39.48C181.313 39.48 179.297 39.208 177.505 38.664C175.713 38.088 174.001 37.096 172.369 35.688C171.953 35.336 171.633 34.936 171.409 34.488C171.185 34.04 171.073 33.592 171.073 33.144C171.073 32.408 171.329 31.768 171.841 31.224C172.385 30.648 173.057 30.36 173.857 30.36C174.465 30.36 175.009 30.552 175.489 30.936C176.705 31.928 177.905 32.68 179.089 33.192C180.305 33.704 181.793 33.96 183.553 33.96C184.737 33.96 185.825 33.784 186.817 33.432C187.809 33.048 188.609 32.552 189.217 31.944C189.825 31.304 190.129 30.584 190.129 29.784C190.129 28.824 189.841 28.008 189.265 27.336C188.689 26.664 187.809 26.104 186.625 25.656C185.441 25.176 183.937 24.808 182.113 24.552C180.385 24.296 178.865 23.912 177.553 23.4C176.241 22.856 175.137 22.184 174.241 21.384C173.377 20.552 172.721 19.592 172.273 18.504C171.825 17.384 171.601 16.136 171.601 14.76C171.601 12.68 172.129 10.904 173.185 9.432C174.273 7.96 175.729 6.84 177.553 6.072C179.377 5.304 181.393 4.92 183.601 4.92C185.681 4.92 187.601 5.24 189.361 5.88C191.153 6.488 192.609 7.272 193.729 8.232C194.657 8.968 195.121 9.816 195.121 10.776C195.121 11.48 194.849 12.12 194.305 12.696C193.761 13.272 193.121 13.56 192.385 13.56C191.905 13.56 191.473 13.416 191.089 13.128C190.577 12.68 189.889 12.264 189.025 11.88C188.161 11.464 187.249 11.128 186.289 10.872C185.329 10.584 184.433 10.44 183.601 10.44C182.225 10.44 181.057 10.616 180.097 10.968C179.169 11.32 178.465 11.8 177.985 12.408C177.505 13.016 177.265 13.72 177.265 14.52C177.265 15.48 177.537 16.28 178.081 16.92C178.657 17.528 179.473 18.024 180.529 18.408C181.585 18.76 182.849 19.08 184.321 19.368C186.241 19.72 187.921 20.136 189.361 20.616C190.833 21.096 192.049 21.72 193.009 22.488C193.969 23.224 194.689 24.168 195.169 25.32C195.649 26.44 195.889 27.816 195.889 29.448C195.889 31.528 195.313 33.32 194.161 34.824C193.009 36.328 191.489 37.48 189.601 38.28C187.745 39.08 185.729 39.48 183.553 39.48Z" fill="white"/>
<rect width="5.31834" height="36.2728" rx="2.65917" transform="matrix(-0.919242 -0.393692 -0.393692 0.919242 22.2063 6.72552)" fill="#2B6CB2"/>
<rect x="16.0371" y="6.72552" width="5.31834" height="36.2728" rx="2.65917" transform="rotate(-23.1844 16.0371 6.72552)" fill="#2B6CB2"/>
<path d="M19.2148 13.875C14.9562 13.875 11.5462 15.8156 9.06384 18.1254C6.59725 20.4141 4.94759 23.1562 4.16755 25.0389C3.99363 25.4555 3.99363 25.9195 4.16755 26.3361C4.94759 28.2187 6.59725 30.9609 9.06384 33.2496C11.5462 35.5594 14.9562 37.5 19.2148 37.5C23.4734 37.5 26.8834 35.5594 29.3658 33.2496C31.8323 30.9557 33.482 28.2187 34.2673 26.3361C34.4412 25.9195 34.4412 25.4555 34.2673 25.0389C33.482 23.1562 31.8323 20.4141 29.3658 18.1254C26.8834 15.8156 23.4734 13.875 19.2148 13.875Z" fill="white"/>
<path d="M14.2388 25.6781C16.9182 25.6781 19.0967 23.4955 19.0967 20.8109C19.0967 20.2709 19.0056 19.7538 18.8462 19.2671C18.7096 18.8412 18.9677 18.3621 19.4079 18.3773C22.5049 18.5066 25.2906 20.6284 26.1332 23.7844C27.1731 27.6782 24.8656 31.6861 20.9792 32.728C17.0928 33.7698 13.0926 31.4579 12.0527 27.5641C11.9085 27.0394 11.8326 26.5147 11.8098 25.9899C11.7946 25.5488 12.2804 25.2902 12.6979 25.4271C13.1837 25.5868 13.6998 25.6781 14.2388 25.6781Z" fill="#0C0D2B"/>
</svg>
